<?xml version="1.0" encoding="utf-8"?>
<!-- Generator: Adobe Illustrator 16.0.0, SVG Export Plug-In . SVG Version: 6.00 Build 0)  -->
<!DOCTYPE svg PUBLIC "-//W3C//DTD SVG 1.1//EN" "http://www.w3.org/Graphics/SVG/1.1/DTD/svg11.dtd">
<svg version="1.1" xmlns="http://www.w3.org/2000/svg" xmlns:xlink="http://www.w3.org/1999/xlink" x="0px" y="0px" width="230.5px"
	 height="104px" viewBox="0 0 230.5 104" enable-background="new 0 0 230.5 104" xml:space="preserve">
<g id="Guides" display="none">
</g>
<g id="front-white">
	<g>
		<text transform="matrix(1 0 0 1 4.4683 73.7134)"><tspan x="0" y="0" fill="#2B9AD3" font-family="'Quicksand-Regular'" font-size="78.8586" letter-spacing="-2">a</tspan><tspan x="46.21" y="0" fill="#2B9AD3" font-family="'Quicksand-Regular'" font-size="78.8586" letter-spacing="-5">t</tspan><tspan x="72.233" y="0" fill="#2B9AD3" font-family="'Quicksand-Regular'" font-size="78.8586" letter-spacing="-2">m</tspan><tspan x="144.861" y="0" fill="#2B9AD3" font-family="'Quicksand-Regular'" font-size="78.8586" letter-spacing="-2">  </tspan><tspan x="187.6" y="0" fill="#2B9AD3" font-family="'Quicksand-Regular'" font-size="78.8586">s</tspan></text>
		<path fill="#63CBEA" d="M190.159,27.977c0,2.617-2.113,4.735-4.73,4.735c-2.616,0-4.735-2.118-4.735-4.735
			c0-2.615,2.119-4.74,4.735-4.74C188.046,23.237,190.159,25.362,190.159,27.977"/>
		<path fill="#63CBEA" d="M169.93,36.973c9.312,0,16.885,7.574,16.885,16.886s-7.572,16.888-16.885,16.888
			s-16.889-7.576-16.889-16.888S160.617,36.973,169.93,36.973 M169.93,33.765c-11.104,0-20.097,8.997-20.097,20.095
			c0,11.104,8.992,20.097,20.097,20.097c11.094,0,20.094-8.993,20.094-20.097C190.023,42.761,181.023,33.765,169.93,33.765"/>
	</g>
</g>
<g id="front-black" display="none">
</g>
<g id="back" display="none">
</g>
</svg>
