<?xml version="1.0" encoding="utf-8"?>
<!-- Generator: Adobe Illustrator 16.0.0, SVG Export Plug-In . SVG Version: 6.00 Build 0)  -->
<!DOCTYPE svg PUBLIC "-//W3C//DTD SVG 1.1//EN" "http://www.w3.org/Graphics/SVG/1.1/DTD/svg11.dtd">
<svg version="1.1" id="Layer_1" xmlns="http://www.w3.org/2000/svg" xmlns:xlink="http://www.w3.org/1999/xlink" x="0px" y="0px"
	 width="348.484px" height="133.052px" viewBox="0 0 348.484 133.052" enable-background="new 0 0 348.484 133.052"
	 xml:space="preserve">
<g>
	<text transform="matrix(1 0 0 1 1.9683 105.2295)"><tspan x="0" y="0" fill="#FFFFFF" font-family="'Quicksand-Regular'" font-size="120.0122" letter-spacing="-3">a</tspan><tspan x="70.326" y="0" fill="#FFFFFF" font-family="'Quicksand-Regular'" font-size="120.0122" letter-spacing="-8">t</tspan><tspan x="109.929" y="0" fill="#FFFFFF" font-family="'Quicksand-Regular'" font-size="120.0122" letter-spacing="-3">m</tspan><tspan x="220.458" y="0" fill="#FFFFFF" font-family="'Quicksand-Regular'" font-size="120.0122" letter-spacing="-3">  </tspan><tspan x="285.502" y="0" fill="#FFFFFF" font-family="'Quicksand-Regular'" font-size="120.0122">s</tspan></text>
	<path fill="#2A76AD" d="M286.088,35.624c0,3.982-3.216,7.205-7.198,7.205c-3.985,0-7.209-3.223-7.209-7.205
		c0-3.979,3.224-7.212,7.209-7.212C282.872,28.412,286.088,31.645,286.088,35.624"/>
	<path fill="#2A76AD" d="M255.299,49.314c14.173,0,25.697,11.527,25.697,25.698c0,14.172-11.524,25.701-25.697,25.701
		c-14.172,0-25.701-11.529-25.701-25.701C229.598,60.842,241.127,49.314,255.299,49.314 M255.299,44.433
		c-16.896,0-30.582,13.69-30.582,30.58c0,16.898,13.686,30.586,30.582,30.586c16.885,0,30.581-13.688,30.581-30.586
		C285.88,58.123,272.184,44.433,255.299,44.433"/>
</g>
</svg>
