<?xml version="1.0" encoding="utf-8"?>
<!-- Generator: Adobe Illustrator 16.0.0, SVG Export Plug-In . SVG Version: 6.00 Build 0)  -->
<!DOCTYPE svg PUBLIC "-//W3C//DTD SVG 1.1//EN" "http://www.w3.org/Graphics/SVG/1.1/DTD/svg11.dtd">
<svg version="1.1" xmlns="http://www.w3.org/2000/svg" xmlns:xlink="http://www.w3.org/1999/xlink" x="0px" y="0px" width="136px"
	 height="66.5px" viewBox="0 0 136 66.5" enable-background="new 0 0 136 66.5" xml:space="preserve">
<g id="Guides" display="none">
</g>
<g id="front-white">
	<g>
		<text transform="matrix(1 0 0 1 4.4683 46.3071)"><tspan x="0" y="0" fill="#2B9AD3" font-family="'Quicksand-Regular'" font-size="44.2587" letter-spacing="-1">a</tspan><tspan x="25.935" y="0" fill="#2B9AD3" font-family="'Quicksand-Regular'" font-size="44.2587" letter-spacing="-3">t</tspan><tspan x="40.54" y="0" fill="#2B9AD3" font-family="'Quicksand-Regular'" font-size="44.2587" letter-spacing="-1">m</tspan><tspan x="81.301" y="0" fill="#2B9AD3" font-family="'Quicksand-Regular'" font-size="44.2587" letter-spacing="-1">  </tspan><tspan x="105.289" y="0" fill="#2B9AD3" font-family="'Quicksand-Regular'" font-size="44.2587">s</tspan></text>
		<path fill="#63CBEA" d="M108.686,20.638c0,1.469-1.186,2.658-2.654,2.658s-2.658-1.189-2.658-2.658c0-1.467,1.189-2.66,2.658-2.66
			S108.686,19.17,108.686,20.638"/>
		<path fill="#63CBEA" d="M97.332,25.687c5.227,0,9.477,4.251,9.477,9.478c0,5.226-4.25,9.478-9.477,9.478s-9.479-4.252-9.479-9.478
			C87.854,29.938,92.105,25.687,97.332,25.687 M97.332,23.886c-6.232,0-11.279,5.049-11.279,11.278
			c0,6.231,5.047,11.279,11.279,11.279c6.227,0,11.277-5.047,11.277-11.279C108.609,28.935,103.559,23.886,97.332,23.886"/>
	</g>
</g>
<g id="front-black" display="none">
</g>
<g id="back" display="none">
</g>
</svg>
